<?xml version="1.0" encoding="UTF-8" standalone="no"?>
<!DOCTYPE svg PUBLIC "-//W3C//DTD SVG 1.1//EN" "http://www.w3.org/Graphics/SVG/1.1/DTD/svg11.dtd">
<svg width="456" height="456" viewBox="0 0 456 456" version="1.1" xmlns="http://www.w3.org/2000/svg" xmlns:xlink="http://www.w3.org/1999/xlink" xml:space="preserve" xmlns:serif="http://www.serif.com/" style="fill-rule:evenodd;clip-rule:evenodd;stroke-linejoin:round;stroke-miterlimit:2;">
    <!-- T -->
    <path d="M 146.56466,194.72106 H 118.7222 v 85.3634 h -16.08423 v -85.3634 h -27.77455 v -13.99669 h 71.70124 z" style="fill:#ffffff;fill-rule:nonzero;stroke-width:0.838376" />
    <!-- E -->
    <path d="m 209.25134,280.08446 h -54.40052 v -99.36009 h 52.23835 v 13.99669 h -36.15411 v 28.13085 h 33.31621 v 13.9271 h -33.31621 v 29.37835 h 38.31628 z" style="fill:#ffffff;fill-rule:nonzero;stroke-width:0.838376" />
    <!-- S -->
    <path d="M 280.12,220.45 C 280.12,215.2 277.82,212.58 273.22,212.58 H 256.45 C 250.1,212.58 246.93,215.95 246.93,222.69 C 246.93,226.54 248.23,229.16 250.83,230.55 L 270.6,239.82 C 276.95,242.67 280.12,247.27 280.12,253.61 C 280.12,265.18 272.88,270.97 258.4,270.97 H 238.63 V 257.46 H 257.17 C 262.4,257.46 265.02,254.84 265.02,249.61 C 265.02,245.76 263.72,243.14 261.12,241.75 L 241.35,232.48 C 235,229.63 231.83,225.03 231.83,218.69 C 231.83,207.12 239.07,201.33 253.55,201.33 H 273.32 V 214.84 H 256.55 C 251.32,214.84 248.7,217.46 248.7,222.69 Z" style="fill:#ffffff;fill-rule:nonzero;stroke-width:0.838376" />
    <!-- T -->
    <path d="M 366.56466,194.72106 H 338.7222 v 85.3634 h -16.08423 v -85.3634 h -27.77455 v -13.99669 h 71.70124 z" style="fill:#ffffff;fill-rule:nonzero;stroke-width:0.838376" />
</svg>
